<?xml version="1.0" standalone="no"?>
<!DOCTYPE svg PUBLIC "-//W3C//DTD SVG 20010904//EN"
 "http://www.w3.org/TR/2001/REC-SVG-20010904/DTD/svg10.dtd">
<svg version="1.0" xmlns="http://www.w3.org/2000/svg"
 width="1024.000000pt" height="1024.000000pt" viewBox="0 0 1024.000000 1024.000000"
 preserveAspectRatio="xMidYMid meet">

<g transform="translate(0.000000,1024.000000) scale(0.100000,-0.100000)"
fill="#000000" stroke="none">
<path d="M19 10198 c-1 -40 -2 -41 -9 -13 -5 19 -8 -13 -8 -85 0 -63 3 -102 7
-86 3 17 5 -2204 4 -4935 -1 -2730 1 -4990 4 -5021 l6 -58 5108 0 5109 0 0
5120 0 5120 -5110 0 -5110 0 -1 -42z m4859 -1642 c52 -31 109 -52 317 -115 39
-12 147 -46 240 -76 94 -29 231 -65 305 -80 74 -15 227 -49 340 -75 113 -27
252 -58 310 -70 284 -58 582 -157 758 -251 238 -127 478 -328 677 -567 56 -67
178 -239 215 -302 52 -90 138 -295 150 -360 6 -29 11 -54 13 -55 1 -1 29 -17
62 -35 106 -59 229 -146 361 -255 71 -59 163 -133 204 -165 41 -32 131 -111
200 -175 71 -66 156 -135 197 -159 l71 -42 -196 -84 c-109 -46 -249 -104 -312
-130 -63 -26 -142 -60 -175 -75 -114 -52 -446 -183 -494 -196 l-48 -12 -11
-86 c-31 -229 -132 -537 -264 -802 -166 -334 -383 -637 -651 -908 -237 -239
-559 -475 -817 -600 -533 -256 -986 -368 -1580 -390 -324 -12 -364 -8 -381 37
-8 21 -7 29 7 39 11 8 18 31 20 68 7 101 -12 94 277 94 559 1 937 77 1431 290
459 198 840 503 1163 932 242 323 434 708 518 1044 30 118 60 286 67 373 3 32
7 35 73 61 39 16 106 45 150 66 181 84 587 254 693 289 95 32 111 40 101 52
-7 8 -64 54 -128 102 -64 47 -171 133 -239 189 -144 122 -241 193 -386 286
l-106 68 -16 57 c-8 31 -26 86 -39 122 -14 36 -36 103 -51 150 -21 69 -35 94
-73 135 -26 28 -65 77 -87 110 -230 355 -509 578 -930 745 -133 54 -423 121
-939 220 -182 35 -631 167 -718 211 l-40 21 6 -49 c13 -115 176 -504 281 -673
25 -41 46 -77 46 -81 0 -3 -44 -8 -98 -11 -108 -5 -137 -16 -146 -53 -7 -27
12 -40 -369 258 -54 42 -130 95 -170 118 -39 23 -94 56 -122 74 -27 17 -117
69 -200 114 -82 46 -170 95 -193 108 l-44 25 7 -23 c39 -130 175 -404 250
-504 40 -53 353 -202 633 -300 47 -17 52 -22 52 -48 0 -19 -4 -28 -13 -24 -7
2 -55 10 -107 16 -447 56 -645 104 -985 235 -77 30 -142 52 -144 51 -13 -13
182 -292 293 -420 34 -39 71 -83 82 -97 21 -27 26 -28 170 -38 314 -21 575 -7
726 40 31 10 59 16 61 13 3 -2 -2 -32 -10 -66 -18 -81 -40 -237 -48 -360 -4
-53 -10 -99 -14 -101 -3 -2 -49 9 -101 25 -52 15 -172 50 -266 77 -94 27 -265
80 -380 117 -115 37 -299 96 -409 131 -780 251 -1221 406 -1474 519 -57 25
-105 44 -107 42 -11 -10 80 -294 144 -452 102 -251 169 -351 369 -554 84 -85
151 -156 149 -158 -7 -7 -180 19 -242 37 -38 11 -66 15 -70 9 -15 -24 38 -159
119 -304 145 -258 262 -379 470 -481 53 -27 97 -51 97 -55 0 -3 -41 -9 -91
-12 -50 -3 -93 -8 -96 -10 -18 -18 180 -300 277 -396 135 -133 232 -193 545
-333 116 -52 147 -62 338 -103 104 -23 185 -35 235 -35 66 0 83 -4 114 -25 41
-28 78 -82 78 -115 0 -38 -43 -101 -86 -126 l-41 -24 -1165 -5 -1165 -5 -34
23 c-19 12 -45 44 -58 70 -23 46 -23 49 -7 91 11 29 31 53 61 75 l45 32 744 2
c693 2 740 3 701 18 -148 56 -507 323 -601 447 -47 62 -156 244 -216 361 -33
65 -68 115 -112 161 -124 128 -231 319 -376 674 -85 207 -91 237 -55 273 15
14 18 13 42 -8 14 -13 24 -19 21 -14 -3 6 -42 78 -86 160 -129 241 -214 488
-291 845 -46 219 -57 300 -41 300 6 0 32 -14 58 -32 46 -32 196 -99 377 -168
55 -21 165 -64 245 -95 226 -89 1039 -369 1047 -361 3 3 -54 115 -98 192 -51
90 -164 386 -219 573 -12 40 -24 81 -28 90 -3 9 12 1 33 -18 22 -19 81 -54
130 -77 99 -46 264 -114 277 -114 5 0 38 -14 73 -32 36 -17 68 -29 71 -26 3 3
-17 66 -45 139 -28 74 -61 175 -74 224 -76 280 -118 447 -115 460 2 10 29 -1
99 -43 53 -31 136 -75 185 -97 205 -91 717 -375 797 -441 16 -13 40 -24 53
-24 21 0 24 3 18 25 -9 37 14 31 31 -7 12 -28 12 -35 0 -44 -12 -9 -9 -16 16
-40 26 -24 30 -26 26 -9 -4 11 -27 88 -53 170 -45 145 -91 316 -120 440 -14
61 -19 175 -8 175 3 0 31 -15 62 -34z m1918 -911 c64 -31 83 -62 60 -97 -28
-42 -54 -51 -110 -34 -54 17 -96 50 -96 78 0 10 7 35 15 55 14 33 17 35 48 29
17 -3 55 -17 83 -31z m217 -109 c55 -23 80 -54 73 -89 -10 -50 -45 -80 -85
-73 -42 7 -79 31 -93 61 -8 19 -6 32 12 69 24 50 39 55 93 32z m223 -147 c41
-25 74 -69 74 -100 0 -30 -38 -69 -67 -69 -32 0 -80 26 -93 49 -16 31 -12 71
11 107 24 40 31 41 75 13z m-1201 -134 c149 -8 310 -20 360 -25 133 -16 479
-74 650 -110 163 -34 502 -142 604 -193 l64 -32 38 -109 c41 -114 69 -241 69
-307 l0 -39 -72 36 c-194 98 -354 150 -753 244 -162 39 -332 67 -655 110 -264
35 -372 43 -681 49 l-307 6 49 155 c27 85 49 160 49 167 0 6 4 23 10 37 l10
26 147 0 c82 0 270 -7 418 -15z m-2920 -437 c808 -278 1546 -499 1864 -558 63
-12 136 -32 162 -45 104 -53 296 -231 362 -335 37 -59 96 -200 121 -290 17
-60 36 -204 35 -260 l0 -35 -13 45 c-49 180 -184 405 -310 517 -71 62 -89 69
-186 76 -47 4 -125 15 -175 26 -49 11 -162 27 -250 36 -88 9 -228 25 -310 36
-83 11 -202 24 -265 29 -203 18 -473 50 -535 65 -183 42 -315 110 -490 250
-112 90 -171 153 -234 250 -51 78 -171 305 -171 324 0 6 29 -1 68 -15 37 -15
184 -67 327 -116z m3195 -193 c69 -9 170 -23 224 -31 55 -8 103 -14 108 -14 5
0 5 -8 0 -17 -21 -40 -43 -173 -43 -262 -1 -167 58 -292 175 -375 161 -114
353 -126 521 -31 92 52 238 184 263 239 12 25 28 46 35 46 19 -1 105 -25 112
-32 8 -7 -93 -190 -164 -298 -95 -143 -159 -204 -275 -260 -125 -60 -189 -74
-341 -73 -237 0 -434 82 -600 247 -186 186 -246 387 -216 725 14 153 21 174
54 162 12 -5 78 -16 147 -26z m-4193 -190 c7 -2 26 -23 43 -46 43 -60 39 -132
-12 -186 -21 -23 -25 -23 -280 -23 -284 0 -292 2 -342 60 -20 24 -26 42 -26
79 0 40 5 52 33 78 56 53 54 53 322 47 138 -3 255 -7 262 -9z m5105 -40 c68
-45 101 -161 60 -211 -25 -32 -77 -55 -136 -61 -46 -4 -56 -2 -97 29 -26 18
-47 35 -47 38 0 3 -5 18 -11 33 -26 69 -2 134 66 178 58 37 103 35 165 -6z
m-395 -87 c-3 -8 -6 -5 -6 6 -1 11 2 17 5 13 3 -3 4 -12 1 -19z m1368 -137
c166 -108 385 -279 385 -302 0 -3 -11 -4 -24 -2 -13 3 -70 -12 -127 -32 -57
-20 -160 -56 -229 -80 -69 -24 -170 -62 -225 -85 -55 -23 -134 -53 -175 -67
-41 -14 -106 -37 -143 -51 -37 -13 -70 -22 -72 -20 -3 2 17 36 43 74 26 38 59
94 72 124 14 30 63 122 109 205 46 82 105 196 132 253 l48 102 38 -17 c21 -10
97 -56 168 -102z m-1344 -30 c12 -28 29 -56 38 -61 9 -5 11 -10 4 -10 -33 -1
-84 109 -82 175 1 26 2 24 9 -12 5 -22 19 -64 31 -92z m199 -11 c0 -5 -5 -10
-11 -10 -5 0 -7 5 -4 10 3 6 8 10 11 10 2 0 4 -4 4 -10z m120 -40 c26 -23 40
-25 40 -7 0 12 20 -11 20 -25 0 -8 -77 -45 -113 -54 -24 -6 -28 -4 -26 12 1
11 -2 28 -6 38 -6 13 -4 21 3 24 18 6 14 20 -5 25 -10 3 0 5 23 6 28 1 48 -5
64 -19z m-3780 -160 c91 -11 253 -31 360 -45 238 -30 498 -52 770 -65 232 -11
239 -12 520 -46 252 -30 298 -43 355 -95 66 -61 185 -242 185 -282 0 -10 -12
-11 -57 -6 -32 4 -101 8 -153 9 -52 0 -126 6 -165 11 -38 6 -378 14 -755 18
l-685 7 -85 32 c-271 105 -453 237 -557 404 -78 124 -79 118 19 97 46 -10 157
-28 248 -39z m-1722 -72 c21 -24 42 -69 42 -93 0 -8 -12 -28 -27 -44 -26 -27
-35 -30 -120 -36 -84 -6 -93 -5 -112 14 -16 16 -21 34 -21 72 0 43 5 55 29 80
28 27 34 29 108 29 70 0 82 -3 101 -22z m536 13 c62 -7 71 -11 97 -42 78 -94
94 -162 54 -223 -17 -26 -19 -26 -139 -26 -153 1 -199 10 -237 46 -59 57 -58
138 3 202 52 54 79 59 222 43z m-435 -448 c12 -14 24 -37 27 -49 7 -27 -29
-109 -52 -118 -8 -3 -116 -6 -240 -6 -223 -1 -227 -1 -251 22 -49 45 -50 97
-3 148 l28 30 235 0 236 0 20 -27z m4726 -223 c306 -119 635 -132 927 -35
l103 33 13 -30 c16 -38 0 -113 -59 -278 -190 -535 -480 -949 -903 -1290 -18
-14 -18 -14 -7 8 11 21 10 24 -8 29 -26 7 -26 11 1 35 17 14 23 16 30 6 4 -7
8 26 8 75 l0 87 -45 0 c-25 0 -44 4 -42 9 6 22 -21 8 -126 -64 -62 -42 -102
-74 -89 -70 12 3 22 3 22 0 0 -14 -26 -30 -50 -32 -15 -1 -18 0 -7 3 9 3 15
10 12 15 -4 5 -14 5 -26 -1 -11 -6 -17 -15 -14 -21 4 -5 -3 -9 -14 -9 -12 0
-21 -4 -21 -9 0 -5 -8 -8 -17 -7 -10 0 -23 -11 -30 -26 -11 -22 -20 -27 -46
-27 -18 1 -45 -6 -62 -15 -16 -9 -24 -16 -17 -16 7 0 22 5 33 10 15 8 19 7 19
-4 0 -7 -11 -17 -25 -20 -14 -4 -25 -11 -25 -16 0 -5 -6 -7 -14 -4 -8 3 -17 1
-21 -5 -3 -6 -11 -11 -17 -11 -6 0 -3 10 8 22 l19 21 -25 -16 c-14 -9 -52 -26
-85 -38 -33 -12 -64 -25 -70 -29 -5 -4 -36 -17 -68 -30 -41 -16 -55 -26 -48
-34 7 -9 -11 -18 -65 -35 -41 -13 -77 -21 -80 -18 -3 2 26 16 63 30 37 14 62
26 56 26 -7 1 -41 -10 -75 -23 -71 -26 -315 -86 -456 -112 -52 -9 -88 -20 -82
-24 7 -5 3 -9 -12 -13 -33 -9 -68 -8 -68 1 0 5 -23 10 -51 11 -51 1 -87 14
-101 35 -14 21 -8 63 11 80 11 10 25 30 31 46 7 16 22 36 35 44 13 8 28 31 35
51 6 19 16 35 21 35 6 0 9 12 7 28 -3 25 -7 28 -63 35 -33 4 -467 9 -965 11
-498 1 -925 6 -950 11 -63 10 -95 29 -125 72 -48 71 -26 156 55 211 l35 24
710 -8 c990 -12 1013 -12 1110 14 174 46 245 78 455 202 457 271 815 625 1052
1042 l50 88 25 -20 c13 -10 71 -37 128 -60z m-4035 -35 c13 -20 16 -35 10 -45
-7 -12 -12 -10 -29 9 -22 25 -29 75 -10 69 5 -2 19 -17 29 -33z m2913 26 c138
-11 136 -8 149 -205 10 -149 10 -158 -8 -175 -18 -17 -51 -18 -594 -11 -538 7
-581 9 -674 29 -121 27 -225 62 -333 111 -133 62 -203 116 -271 213 l-33 47
833 0 c458 -1 877 -5 931 -9z m-2592 -118 c10 -8 20 -9 29 -3 8 6 62 10 119
10 l105 0 53 -57 c78 -83 72 -138 -21 -182 -66 -31 -208 -40 -648 -43 -379 -3
-387 -3 -415 18 -63 47 -90 123 -62 177 6 12 28 39 48 60 l36 38 371 -3 c269
-2 375 -6 385 -15z m-1117 -44 c49 -58 46 -111 -9 -166 -36 -36 -56 -39 -117
-21 -79 24 -110 99 -65 159 30 42 63 58 119 59 40 0 50 -4 72 -31z m208 -589
c39 -39 40 -42 36 -93 -5 -57 -28 -99 -66 -116 -34 -16 -275 -14 -315 3 -53
22 -87 70 -87 122 0 36 6 51 36 84 l36 40 160 0 160 0 40 -40z m631 -548 c101
-68 103 -152 5 -237 l-43 -37 -297 5 c-168 3 -304 10 -315 15 -23 13 -67 61
-82 89 -31 61 2 139 76 178 41 21 48 22 330 17 l288 -4 38 -26z m-1052 -51
c64 -63 50 -157 -29 -203 -43 -26 -184 -25 -232 0 -69 37 -88 126 -38 180 47
51 77 62 172 62 l88 0 39 -39z m5075 -278 c-26 -22 -30 -23 -38 -9 -12 22 0
39 23 33 10 -3 22 -1 25 5 3 5 9 6 13 3 3 -4 -7 -18 -23 -32z m-66 -49 c0 -3
-90 -64 -95 -64 -2 0 -2 7 1 15 4 8 12 15 20 15 8 0 14 9 14 19 0 15 7 19 30
19 17 -1 30 -2 30 -4z m-236 -147 c-2 -7 -25 -23 -49 -35 -26 -12 -42 -16 -39
-9 3 7 24 21 47 33 23 12 43 22 44 23 1 0 0 -5 -3 -12z m-1787 -55 c76 -54 97
-115 64 -179 -28 -55 -75 -93 -114 -92 -18 0 -482 -2 -1032 -5 -1119 -5 -1040
-10 -1096 67 -57 79 -30 172 65 220 24 13 167 15 1054 14 l1027 -2 32 -23z
m-2541 -46 c36 -35 44 -50 44 -80 0 -47 -21 -89 -59 -115 -26 -19 -43 -21
-171 -21 -157 0 -178 6 -218 64 -39 58 -24 115 46 169 35 26 38 27 175 27
l140 0 43 -44z m3721 -162 c-3 -3 -12 -4 -19 -1 -8 3 -5 6 6 6 11 1 17 -2 13
-5z m-816 -67 c-16 -20 1 -35 54 -45 47 -9 45 -10 -44 -11 -52 0 -92 1 -90 4
44 52 85 87 87 77 2 -7 -1 -19 -7 -25z m589 13 c-20 -13 -33 -13 -25 0 3 6 14
10 23 10 15 0 15 -2 2 -10z m-156 -19 c3 -5 -3 -11 -15 -14 -16 -4 -18 -3 -8
9 13 16 16 17 23 5z m-236 -38 c-15 -2 -42 -2 -60 0 -18 2 -6 4 27 4 33 0 48
-2 33 -4z m-1080 -242 l172 -7 56 -54 c52 -52 55 -58 51 -95 -3 -22 -8 -49
-11 -60 -9 -26 -66 -65 -108 -73 -18 -4 -304 -5 -635 -2 -591 5 -602 5 -630
26 -76 56 -96 145 -46 205 61 72 38 69 533 68 245 0 523 -4 618 -8z m-1498
-37 c35 -30 60 -73 60 -104 0 -32 -37 -98 -67 -117 -22 -15 -59 -19 -213 -24
-206 -7 -228 -3 -273 50 -50 59 -31 147 40 196 37 25 41 25 230 25 l191 0 32
-26z m4857 -1108 c0 -8 -6 -12 -15 -9 -11 5 -11 7 0 14 7 5 13 9 14 9 0 0 1
-6 1 -14z m-82 -96 c-11 -5 -29 -8 -40 -8 -16 0 -15 2 5 8 34 11 60 11 35 0z
m-77 -17 c-10 -2 -26 -2 -35 0 -10 3 -2 5 17 5 19 0 27 -2 18 -5z m-81 -9 c-3
-3 -12 -4 -19 -1 -8 3 -5 6 6 6 11 1 17 -2 13 -5z"/>
<path d="M7225 4630 c-10 -11 -14 -20 -9 -20 5 0 15 9 22 20 7 11 11 20 9 20
-2 0 -12 -9 -22 -20z"/>
<path d="M7118 4473 c-18 -27 -44 -61 -59 -78 -115 -131 -160 -187 -154 -193
4 -4 10 -1 12 6 3 6 13 12 24 12 10 0 19 4 19 10 0 14 67 101 93 122 12 10 18
18 14 18 -4 0 10 24 31 53 41 55 66 97 58 97 -3 0 -20 -21 -38 -47z"/>
<path d="M6826 4141 c-54 -54 -56 -58 -32 -58 18 0 26 5 28 20 2 12 14 27 28
34 14 7 28 24 31 38 4 14 6 25 5 25 -1 0 -28 -26 -60 -59z"/>
<path d="M6678 3998 c-13 -13 -17 -17 -8 -10 9 6 22 12 28 12 7 0 12 5 12 10
0 15 -6 12 -32 -12z"/>
<path d="M6620 3950 c-8 -5 -12 -12 -9 -15 4 -3 12 1 19 10 14 17 11 19 -10 5z"/>
<path d="M6535 3890 c-3 -5 1 -10 9 -10 9 0 16 5 16 10 0 6 -4 10 -9 10 -6 0
-13 -4 -16 -10z"/>
</g>
</svg>
